<svg width="164" height="123" viewBox="0 0 164 123" fill="none" xmlns="http://www.w3.org/2000/svg">
<path fill-rule="evenodd" clip-rule="evenodd" d="M137 68C137 98.3754 112.375 123 82 123C51.6243 123 27 98.3754 27 68C27 37.6243 51.6243 13 82 13C112.375 13 137 37.6243 137 68ZM104.167 51.3332C105.778 52.9441 105.778 55.5559 104.167 57.1666L76.6666 84.6666C75.0557 86.2776 72.4443 86.2776 70.8332 84.6666L59.8332 73.6666C58.2223 72.0557 58.2223 69.4443 59.8332 67.8334C61.4441 66.2224 64.0559 66.2224 65.6668 67.8334L73.75 75.9161L86.0414 63.6248L98.3334 51.3332C99.9443 49.7223 102.556 49.7223 104.167 51.3332Z" fill="#11D432"/>
<circle cx="159" cy="92" r="5" fill="#2174F5"/>
<path d="M117.635 33.875C122.742 27.2646 137.842 17.0524 157.388 29.087" stroke="#FE5F5F" stroke-width="4" stroke-linecap="round"/>
<path d="M9.58424 2C4.75091 10.8333 -6.41154 29.5 13.0842 29.5C32.58 29.5 -11.6343 1.36386 16.0845 42.5" stroke="#2174F5" stroke-width="3" stroke-linecap="round"/>
<path d="M50.2736 95.9914C40.2574 94.9596 18.7234 91.9049 26.2799 109.877C33.8363 127.848 42.6358 76.185 15.459 117.681" stroke="#C054FF" stroke-width="3" stroke-linecap="round"/>
</svg>
