<svg width="20" height="20" viewBox="0 0 20 20" fill="none" xmlns="http://www.w3.org/2000/svg">
<path d="M7.99857 9.93963L9.33498 8.60353C7.78001 7.88896 5.87621 8.17076 4.59707 9.45022C2.95593 11.0911 2.95593 13.7616 4.59707 15.4031C6.23789 17.0443 8.9088 17.0443 10.5497 15.4031C11.8288 14.124 12.1109 12.2199 11.3964 10.6649L10.06 12.0012C10.1921 12.7816 9.96025 13.6116 9.35924 14.2124C8.37447 15.1974 6.77231 15.1974 5.78758 14.2124C4.80281 13.2276 4.80281 11.6255 5.78758 10.641C6.38856 10.0396 7.21856 9.80752 7.99857 9.93963Z" fill="#1C2434"/>
<path d="M12.6417 9.41964C13.9825 11.6804 13.6824 14.6517 11.7403 16.5935C9.44242 18.8914 5.70408 18.8914 3.40649 16.5935C1.10859 14.296 1.10859 10.5573 3.40649 8.2594C5.34802 6.31756 8.3196 6.01748 10.5804 7.35799L11.7997 6.13826C8.85491 4.15806 4.81712 4.46755 2.2157 7.06862C-0.738568 10.0226 -0.738568 14.83 2.2157 17.7839C5.17001 20.7386 9.9768 20.7386 12.9311 17.7839C15.5328 15.1826 15.8419 11.1448 13.8611 8.1996L12.6417 9.41964Z" fill="#2174F5"/>
<path d="M19.9719 3.314C19.909 3.15014 19.7498 3.04916 19.5696 3.05736L16.8132 3.18666L16.9428 0.430553C16.9506 0.250006 16.8496 0.0914892 16.6858 0.0279733C16.5229 -0.0349176 16.3295 0.010356 16.1967 0.142466L13.2554 3.08412L13.1066 6.26077L7.75913 11.6079C7.48709 11.5462 7.19018 11.6192 6.97818 11.8312C6.6492 12.1601 6.6492 12.693 6.97818 13.0219C7.30686 13.3509 7.83999 13.3509 8.16897 13.0219C8.38061 12.8099 8.45393 12.513 8.39225 12.2407L13.7394 6.89324L16.9157 6.7448L19.8574 3.80276C19.9898 3.67037 20.0348 3.47752 19.9719 3.314Z" fill="#1C2434"/>
</svg>
