<svg width="20" height="18" viewBox="0 0 20 18" fill="none" xmlns="http://www.w3.org/2000/svg">
<path d="M13.4446 17V2.77778C13.4446 2.30628 13.2573 1.8541 12.9239 1.5207C12.5905 1.1873 12.1383 1 11.6668 1H8.11127C7.63978 1 7.18759 1.1873 6.8542 1.5207C6.5208 1.8541 6.3335 2.30628 6.3335 2.77778V17" stroke="#2174F5" stroke-width="1.5" stroke-linecap="round" stroke-linejoin="round"/>
<path d="M17 4.55566H2.77778C1.79594 4.55566 1 5.3516 1 6.33344V15.2223C1 16.2042 1.79594 17.0001 2.77778 17.0001H17C17.9818 17.0001 18.7778 16.2042 18.7778 15.2223V6.33344C18.7778 5.3516 17.9818 4.55566 17 4.55566Z" stroke="#1C2434" stroke-width="1.5" stroke-linecap="round" stroke-linejoin="round"/>
</svg>
