<svg width="84" height="84" viewBox="0 0 84 84" fill="none" xmlns="http://www.w3.org/2000/svg">
<circle cx="42" cy="42" r="42" fill="#FFF8EB"/>
<path d="M42 22C38.0444 22 34.1776 23.173 30.8886 25.3706C27.5996 27.5682 25.0362 30.6918 23.5224 34.3463C22.0087 38.0009 21.6126 42.0222 22.3843 45.9018C23.156 49.7814 25.0608 53.3451 27.8579 56.1421C30.6549 58.9392 34.2186 60.844 38.0982 61.6157C41.9778 62.3874 45.9991 61.9913 49.6537 60.4776C53.3082 58.9638 56.4318 56.4004 58.6294 53.1114C60.827 49.8224 62 45.9556 62 42C62 36.6957 59.8929 31.6086 56.1421 27.8579C52.3914 24.1071 47.3043 22 42 22ZM30.5714 44.8571C30.0063 44.8571 29.4539 44.6896 28.9841 44.3756C28.5142 44.0617 28.148 43.6155 27.9318 43.0934C27.7155 42.5713 27.6589 41.9968 27.7692 41.4426C27.8794 40.8884 28.1516 40.3793 28.5511 39.9797C28.9507 39.5801 29.4598 39.308 30.014 39.1978C30.5683 39.0875 31.1427 39.1441 31.6648 39.3603C32.1869 39.5766 32.6331 39.9428 32.9471 40.4127C33.261 40.8825 33.4286 41.4349 33.4286 42C33.4286 42.7578 33.1276 43.4845 32.5917 44.0203C32.0559 44.5561 31.3292 44.8571 30.5714 44.8571ZM42 44.8571C41.4349 44.8571 40.8825 44.6896 40.4127 44.3756C39.9428 44.0617 39.5766 43.6155 39.3603 43.0934C39.1441 42.5713 39.0875 41.9968 39.1978 41.4426C39.308 40.8884 39.5801 40.3793 39.9797 39.9797C40.3793 39.5801 40.8884 39.308 41.4426 39.1978C41.9968 39.0875 42.5713 39.1441 43.0934 39.3603C43.6155 39.5766 44.0617 39.9428 44.3756 40.4127C44.6896 40.8825 44.8571 41.4349 44.8571 42C44.8571 42.7578 44.5561 43.4845 44.0203 44.0203C43.4845 44.5561 42.7578 44.8571 42 44.8571ZM53.4286 44.8571C52.8635 44.8571 52.3111 44.6896 51.8412 44.3756C51.3714 44.0617 51.0052 43.6155 50.7889 43.0934C50.5727 42.5713 50.5161 41.9968 50.6263 41.4426C50.7366 40.8884 51.0087 40.3793 51.4083 39.9797C51.8078 39.5801 52.3169 39.308 52.8712 39.1978C53.4254 39.0875 53.9999 39.1441 54.522 39.3603C55.044 39.5766 55.4903 39.9428 55.8042 40.4127C56.1181 40.8825 56.2857 41.4349 56.2857 42C56.2857 42.7578 55.9847 43.4845 55.4489 44.0203C54.9131 44.5561 54.1863 44.8571 53.4286 44.8571Z" fill="#FFA70B"/>
</svg>
