<svg width="50" height="50" viewBox="0 0 50 50" fill="none" xmlns="http://www.w3.org/2000/svg">
<circle cx="25" cy="25" r="25" fill="#292248"/>
<path d="M24.9973 19.869C22.1579 19.869 19.8664 22.1606 19.8664 25C19.8664 27.8394 22.1579 30.131 24.9973 30.131C27.8367 30.131 30.1282 27.8394 30.1282 25C30.1282 22.1606 27.8367 19.869 24.9973 19.869ZM24.9973 28.3348C23.1611 28.3348 21.6626 26.8362 21.6626 25C21.6626 23.1638 23.1611 21.6652 24.9973 21.6652C26.8335 21.6652 28.332 23.1638 28.332 25C28.332 26.8362 26.8335 28.3348 24.9973 28.3348ZM30.3383 18.4631C29.6754 18.4631 29.14 18.9984 29.14 19.6614C29.14 20.3243 29.6754 20.8597 30.3383 20.8597C31.0013 20.8597 31.5366 20.3268 31.5366 19.6614C31.5368 19.504 31.5059 19.3481 31.4458 19.2026C31.3856 19.0571 31.2974 18.9249 31.1861 18.8136C31.0748 18.7023 30.9426 18.614 30.7971 18.5539C30.6516 18.4937 30.4957 18.4629 30.3383 18.4631ZM34.9989 25C34.9989 23.6191 35.0114 22.2506 34.9338 20.8722C34.8563 19.2711 34.4911 17.8502 33.3203 16.6794C32.147 15.5061 30.7286 15.1433 29.1275 15.0658C27.7466 14.9882 26.3782 15.0007 24.9998 15.0007C23.6189 15.0007 22.2505 14.9882 20.8721 15.0658C19.271 15.1433 17.8501 15.5086 16.6793 16.6794C15.5061 17.8527 15.1433 19.2711 15.0658 20.8722C14.9882 22.2531 15.0007 23.6216 15.0007 25C15.0007 26.3784 14.9882 27.7494 15.0658 29.1278C15.1433 30.7289 15.5086 32.1498 16.6793 33.3206C17.8526 34.4939 19.271 34.8567 20.8721 34.9342C22.253 35.0118 23.6214 34.9993 24.9998 34.9993C26.3807 34.9993 27.7491 35.0118 29.1275 34.9342C30.7286 34.8567 32.1495 34.4914 33.3203 33.3206C34.4936 32.1473 34.8563 30.7289 34.9338 29.1278C35.0139 27.7494 34.9989 26.3809 34.9989 25ZM32.7974 30.899C32.6148 31.3543 32.3947 31.6945 32.0419 32.0448C31.6892 32.3975 31.3515 32.6176 30.8962 32.8003C29.5803 33.3231 26.4558 33.2055 24.9973 33.2055C23.5389 33.2055 20.4118 33.3231 19.0959 32.8028C18.6406 32.6201 18.3004 32.4 17.9502 32.0473C17.5975 31.6945 17.3773 31.3568 17.1947 30.9015C16.6743 29.5831 16.7919 26.4585 16.7919 25C16.7919 23.5415 16.6743 20.4144 17.1947 19.0985C17.3773 18.6432 17.5975 18.303 17.9502 17.9527C18.3029 17.6025 18.6406 17.3799 19.0959 17.1972C20.4118 16.6769 23.5389 16.7945 24.9973 16.7945C26.4558 16.7945 29.5828 16.6769 30.8987 17.1972C31.354 17.3799 31.6942 17.6 32.0444 17.9527C32.3972 18.3055 32.6173 18.6432 32.7999 19.0985C33.3203 20.4144 33.2027 23.5415 33.2027 25C33.2027 26.4585 33.3203 29.5831 32.7974 30.899Z" fill="white"/>
</svg>
