<svg width="20" height="20" viewBox="0 0 20 20" fill="none" xmlns="http://www.w3.org/2000/svg">
<path d="M19.4539 16.7981L14.8745 12.2188C14.1902 13.282 13.2859 14.1863 12.2227 14.8706L16.802 19.45C17.1543 19.8022 17.632 20.0001 18.1301 20.0001C18.6282 20.0001 19.1059 19.8022 19.4581 19.45C19.8103 19.0978 20.0082 18.6201 20.0082 18.122C20.0082 17.6239 19.8103 17.1462 19.4581 16.794L19.4539 16.7981Z" fill="#1C2434"/>
<path d="M14.9871 7.49355C14.9871 6.01147 14.5476 4.56267 13.7242 3.33036C12.9008 2.09805 11.7305 1.13758 10.3612 0.570416C8.99194 0.0032468 7.48524 -0.14515 6.03163 0.14399C4.57803 0.43313 3.2428 1.14682 2.19481 2.19481C1.14682 3.2428 0.43313 4.57803 0.14399 6.03163C-0.14515 7.48524 0.0032468 8.99194 0.570416 10.3612C1.13758 11.7305 2.09805 12.9008 3.33036 13.7242C4.56266 14.5476 6.01147 14.9871 7.49355 14.9871C8.47762 14.9871 9.45205 14.7933 10.3612 14.4167C11.2704 14.0401 12.0964 13.4881 12.7923 12.7923C13.4881 12.0964 14.0401 11.2704 14.4167 10.3612C14.7933 9.45205 14.9871 8.47762 14.9871 7.49355ZM7.49355 13.122C6.37916 13.1229 5.28957 12.7931 4.36265 12.1745C3.43573 11.5559 2.71313 10.6762 2.2863 9.64683C1.85946 8.61743 1.74756 7.48455 1.96477 6.39153C2.18197 5.29852 2.71851 4.29449 3.5065 3.5065C4.29449 2.71851 5.29852 2.18197 6.39153 1.96477C7.48455 1.74756 8.61743 1.85946 9.64683 2.2863C10.6762 2.71313 11.5559 3.43573 12.1745 4.36265C12.7931 5.28957 13.1229 6.37916 13.122 7.49355C13.1187 8.9853 12.5247 10.415 11.4698 11.4698C10.415 12.5247 8.9853 13.1187 7.49355 13.122Z" fill="#2174F5"/>
<path d="M3.10986 7.49359H4.35879C4.35824 7.08177 4.43895 6.67388 4.59629 6.2933C4.75364 5.91272 4.98453 5.56693 5.27573 5.27573C5.56693 4.98452 5.91272 4.75364 6.2933 4.59629C6.67388 4.43895 7.08177 4.35824 7.49359 4.35879V3.10986C6.33095 3.10986 5.21593 3.57172 4.39383 4.39383C3.57172 5.21593 3.10986 6.33095 3.10986 7.49359Z" fill="#1C2434"/>
</svg>
