<svg width="65" height="13" viewBox="0 0 65 13" fill="none" xmlns="http://www.w3.org/2000/svg">
<rect width="65" height="13" fill="#C1C1C1"/>
<g id="Dashbopard" clip-path="url(#clip0_235_3351)">
<rect width="1440" height="915" transform="translate(-475 -459)" fill="#F1F5F9"/>
<rect id="Rectangle 5092" x="-178" y="-130" width="1113" height="665" fill="white"/>
<g id="Group 1000004152">
<path id="Star 1" d="M5.76888 2.25017C5.999 1.54191 7.001 1.54191 7.23112 2.25017L7.78675 3.9602C7.88966 4.27694 8.18483 4.49139 8.51787 4.49139H10.3159C11.0606 4.49139 11.3702 5.44434 10.7678 5.88207L9.31312 6.93893C9.04368 7.13468 8.93094 7.48167 9.03386 7.79841L9.58948 9.50844C9.81961 10.2167 9.00898 10.8057 8.4065 10.3679L6.95186 9.31108C6.68242 9.11532 6.31758 9.11532 6.04814 9.31108L4.59351 10.3679C3.99103 10.8057 3.18039 10.2167 3.41052 9.50844L3.96614 7.79841C4.06906 7.48167 3.95631 7.13468 3.68688 6.93893L2.23224 5.88207C1.62976 5.44434 1.9394 4.49139 2.6841 4.49139H4.48213C4.81517 4.49139 5.11034 4.27694 5.21325 3.9602L5.76888 2.25017Z" fill="#FFBD37"/>
<path id="Star 7" d="M18.7689 2.25017C18.999 1.54191 20.001 1.54191 20.2311 2.25017L20.7867 3.9602C20.8897 4.27694 21.1848 4.49139 21.5179 4.49139H23.3159C24.0606 4.49139 24.3702 5.44434 23.7678 5.88207L22.3131 6.93893C22.0437 7.13468 21.9309 7.48167 22.0339 7.79841L22.5895 9.50844C22.8196 10.2167 22.009 10.8057 21.4065 10.3679L19.9519 9.31108C19.6824 9.11532 19.3176 9.11532 19.0481 9.31108L17.5935 10.3679C16.991 10.8057 16.1804 10.2167 16.4105 9.50844L16.9661 7.79841C17.0691 7.48167 16.9563 7.13468 16.6869 6.93893L15.2322 5.88207C14.6298 5.44434 14.9394 4.49139 15.6841 4.49139H17.4821C17.8152 4.49139 18.1103 4.27694 18.2133 3.9602L18.7689 2.25017Z" fill="#FFBD37"/>
<path id="Star 3" d="M31.7689 2.25017C31.999 1.54191 33.001 1.54191 33.2311 2.25017L33.7867 3.9602C33.8897 4.27694 34.1848 4.49139 34.5179 4.49139H36.3159C37.0606 4.49139 37.3702 5.44434 36.7678 5.88207L35.3131 6.93893C35.0437 7.13468 34.9309 7.48167 35.0339 7.79841L35.5895 9.50844C35.8196 10.2167 35.009 10.8057 34.4065 10.3679L32.9519 9.31108C32.6824 9.11532 32.3176 9.11532 32.0481 9.31108L30.5935 10.3679C29.991 10.8057 29.1804 10.2167 29.4105 9.50844L29.9661 7.79841C30.0691 7.48167 29.9563 7.13468 29.6869 6.93893L28.2322 5.88207C27.6298 5.44434 27.9394 4.49139 28.6841 4.49139H30.4821C30.8152 4.49139 31.1103 4.27694 31.2133 3.9602L31.7689 2.25017Z" fill="#FFBD37"/>
<path id="Star 34" d="M44.7689 2.25017C44.999 1.54191 46.001 1.54191 46.2311 2.25017L46.7867 3.9602C46.8897 4.27694 47.1848 4.49139 47.5179 4.49139H49.3159C50.0606 4.49139 50.3702 5.44434 49.7678 5.88207L48.3131 6.93893C48.0437 7.13468 47.9309 7.48167 48.0339 7.79841L48.5895 9.50844C48.8196 10.2167 48.009 10.8057 47.4065 10.3679L45.9519 9.31108C45.6824 9.11532 45.3176 9.11532 45.0481 9.31108L43.5935 10.3679C42.991 10.8057 42.1804 10.2167 42.4105 9.50844L42.9661 7.79841C43.0691 7.48167 42.9563 7.13468 42.6869 6.93893L41.2322 5.88207C40.6298 5.44434 40.9394 4.49139 41.6841 4.49139H43.4821C43.8152 4.49139 44.1103 4.27694 44.2133 3.9602L44.7689 2.25017Z" fill="#FFBD37"/>
<path id="Star 6" d="M57.7689 2.25017C57.999 1.54191 59.001 1.54191 59.2311 2.25017L59.7867 3.9602C59.8897 4.27694 60.1848 4.49139 60.5179 4.49139H62.3159C63.0606 4.49139 63.3702 5.44434 62.7678 5.88207L61.3131 6.93893C61.0437 7.13468 60.9309 7.48167 61.0339 7.79841L61.5895 9.50844C61.8196 10.2167 61.009 10.8057 60.4065 10.3679L58.9519 9.31108C58.6824 9.11532 58.3176 9.11532 58.0481 9.31108L56.5935 10.3679C55.991 10.8057 55.1804 10.2167 55.4105 9.50844L55.9661 7.79841C56.0691 7.48167 55.9563 7.13468 55.6869 6.93893L54.2322 5.88207C53.6298 5.44434 53.9394 4.49139 54.6841 4.49139H56.4821C56.8152 4.49139 57.1103 4.27694 57.2133 3.9602L57.7689 2.25017Z" fill="#D9D9D9"/>
<g id="Mask group">
<mask id="mask0_235_3351" style="mask-type:alpha" maskUnits="userSpaceOnUse" x="53" y="1" width="11" height="10">
<path id="Star 7_2" d="M57.7689 2.25017C57.999 1.54191 59.001 1.54191 59.2311 2.25017L59.7868 3.9602C59.8897 4.27694 60.1848 4.49139 60.5179 4.49139H62.3159C63.0606 4.49139 63.3702 5.44435 62.7678 5.88208L61.3131 6.93893C61.0437 7.13469 60.931 7.48168 61.0339 7.79842L61.5895 9.50845C61.8196 10.2167 61.009 10.8057 60.4065 10.3679L58.9519 9.31108C58.6824 9.11532 58.3176 9.11532 58.0481 9.31108L56.5935 10.3679C55.991 10.8057 55.1804 10.2167 55.4105 9.50845L55.9661 7.79842C56.0691 7.48168 55.9563 7.13469 55.6869 6.93893L54.2322 5.88207C53.6298 5.44435 53.9394 4.49139 54.6841 4.49139H56.4821C56.8152 4.49139 57.1103 4.27694 57.2133 3.9602L57.7689 2.25017Z" fill="#D9D9D9"/>
</mask>
<g mask="url(#mask0_235_3351)">
<rect id="Rectangle 13" x="53.2188" width="5.28125" height="11.7813" fill="#FFBD37"/>
</g>
</g>
</g>
</g>
<defs>
<clipPath id="clip0_235_3351">
<rect width="1440" height="915" fill="white" transform="translate(-475 -459)"/>
</clipPath>
</defs>
</svg>
