<svg width="141" height="21" viewBox="0 0 141 21" fill="none" xmlns="http://www.w3.org/2000/svg">
<path d="M40 1L43.09 7.26L50 8.27L45 13.14L46.18 20.02L40 16.77L33.82 20.02L35 13.14L30 8.27L36.91 7.26L40 1Z" fill="#F5A627"/>
<path d="M70 1L73.09 7.26L80 8.27L75 13.14L76.18 20.02L70 16.77L63.82 20.02L65 13.14L60 8.27L66.91 7.26L70 1Z" fill="#F5A627"/>
<path d="M100 1L103.09 7.26L110 8.27L105 13.14L106.18 20.02L100 16.77L93.82 20.02L95 13.14L90 8.27L96.91 7.26L100 1Z" stroke="#ACB4CD" stroke-linecap="round" stroke-linejoin="round"/>
<path d="M130 1L133.09 7.26L140 8.27L135 13.14L136.18 20.02L130 16.77L123.82 20.02L125 13.14L120 8.27L126.91 7.26L130 1Z" stroke="#ACB4CD" stroke-linecap="round" stroke-linejoin="round"/>
<path d="M10 1L13.09 7.26L20 8.27L15 13.14L16.18 20.02L10 16.77L3.82 20.02L5 13.14L0 8.27L6.91 7.26L10 1Z" fill="#F5A627"/>
</svg>
