<svg width="79" height="17" viewBox="0 0 79 17" fill="none" xmlns="http://www.w3.org/2000/svg">
<path d="M6.76888 3.25017C6.999 2.54191 8.001 2.54191 8.23112 3.25017L9.01126 5.65118C9.11418 5.96792 9.40934 6.18237 9.74238 6.18237H12.267C13.0117 6.18237 13.3213 7.13533 12.7188 7.57305L10.6764 9.05696C10.407 9.25272 10.2942 9.59971 10.3971 9.91645L11.1773 12.3175C11.4074 13.0257 10.5968 13.6147 9.99428 13.1769L7.95186 11.693C7.68242 11.4973 7.31758 11.4973 7.04814 11.693L5.00572 13.1769C4.40324 13.6147 3.59261 13.0257 3.82274 12.3175L4.60287 9.91645C4.70579 9.59971 4.59304 9.25272 4.32361 9.05696L2.28119 7.57306C1.67871 7.13533 1.98834 6.18237 2.73305 6.18237H5.25762C5.59066 6.18237 5.88582 5.96792 5.98874 5.65118L6.76888 3.25017Z" fill="#FFBD37"/>
<path d="M22.2736 3.09579C22.5126 2.40645 23.4874 2.40645 23.7264 3.09579L24.6169 5.66537C24.7242 5.97484 25.0158 6.18237 25.3433 6.18237H28.1142C28.8709 6.18237 29.1724 7.16052 28.547 7.58649L26.3924 9.05405C26.1055 9.24951 25.9851 9.61308 26.0988 9.94116L26.9416 12.3729C27.1841 13.0725 26.3945 13.6768 25.7825 13.26L23.4328 11.6595C23.1717 11.4817 22.8283 11.4817 22.5672 11.6595L20.2175 13.26C19.6055 13.6768 18.8159 13.0725 19.0584 12.3729L19.9012 9.94116C20.0149 9.61308 19.8945 9.24951 19.6076 9.05405L17.453 7.58649C16.8276 7.16052 17.1291 6.18237 17.8858 6.18237H20.6567C20.9842 6.18237 21.2758 5.97484 21.3831 5.66537L22.2736 3.09579Z" fill="#FFBD37"/>
<path d="M38.2736 3.09579C38.5126 2.40645 39.4874 2.40645 39.7264 3.09579L40.6169 5.66537C40.7242 5.97484 41.0158 6.18237 41.3433 6.18237H44.1142C44.8709 6.18237 45.1724 7.16052 44.547 7.58649L42.3924 9.05405C42.1055 9.24951 41.9851 9.61308 42.0988 9.94116L42.9416 12.3729C43.1841 13.0725 42.3945 13.6768 41.7825 13.26L39.4328 11.6595C39.1717 11.4817 38.8283 11.4817 38.5672 11.6595L36.2175 13.26C35.6055 13.6768 34.8159 13.0725 35.0584 12.3729L35.9012 9.94116C36.0149 9.61308 35.8945 9.24951 35.6076 9.05405L33.453 7.58649C32.8276 7.16052 33.1291 6.18237 33.8858 6.18237H36.6567C36.9842 6.18237 37.2758 5.97484 37.3831 5.66537L38.2736 3.09579Z" fill="#FFBD37"/>
<path d="M53.7689 3.25017C53.999 2.54191 55.001 2.54191 55.2311 3.25017L56.0113 5.65118C56.1142 5.96792 56.4093 6.18237 56.7424 6.18237H59.267C60.0117 6.18237 60.3213 7.13533 59.7188 7.57305L57.6764 9.05696C57.407 9.25272 57.2942 9.59971 57.3971 9.91645L58.1773 12.3175C58.4074 13.0257 57.5968 13.6147 56.9943 13.1769L54.9519 11.693C54.6824 11.4973 54.3176 11.4973 54.0481 11.693L52.0057 13.1769C51.4032 13.6147 50.5926 13.0257 50.8227 12.3175L51.6029 9.91645C51.7058 9.59971 51.593 9.25272 51.3236 9.05696L49.2812 7.57306C48.6787 7.13533 48.9883 6.18237 49.733 6.18237H52.2576C52.5907 6.18237 52.8858 5.96792 52.9887 5.65118L53.7689 3.25017Z" fill="#FFBD37"/>
<path d="M69.2736 3.09579C69.5126 2.40645 70.4874 2.40645 70.7264 3.09579L71.6169 5.66537C71.7242 5.97484 72.0158 6.18237 72.3433 6.18237H75.1142C75.8709 6.18237 76.1724 7.16052 75.547 7.58649L73.3924 9.05405C73.1055 9.24951 72.9851 9.61308 73.0988 9.94116L73.9416 12.3729C74.1841 13.0725 73.3945 13.6768 72.7825 13.26L70.4328 11.6595C70.1717 11.4817 69.8283 11.4817 69.5672 11.6595L67.2175 13.26C66.6055 13.6768 65.8159 13.0725 66.0584 12.3729L66.9012 9.94116C67.0149 9.61308 66.8945 9.24951 66.6076 9.05405L64.453 7.58649C63.8276 7.16052 64.1291 6.18237 64.8858 6.18237H67.6567C67.9842 6.18237 68.2758 5.97484 68.3831 5.66537L69.2736 3.09579Z" fill="#D9D9D9"/>
<mask id="mask0_1221_494" style="mask-type:alpha" maskUnits="userSpaceOnUse" x="64" y="2" width="13" height="12">
<path d="M69.4475 2.75518C69.6777 2.04692 70.6797 2.04692 70.9098 2.75518L71.7665 5.39199C71.8695 5.70873 72.1646 5.92318 72.4977 5.92318L75.2702 5.92318C76.0149 5.92318 76.3245 6.87613 75.722 7.31386L73.479 8.9435C73.2096 9.13926 73.0968 9.48625 73.1998 9.80299L74.0565 12.4398C74.2866 13.1481 73.476 13.737 72.8735 13.2993L70.6305 11.6697C70.3611 11.4739 69.9962 11.4739 69.7268 11.6697L67.4838 13.2993C66.8813 13.737 66.0707 13.1481 66.3008 12.4398L67.1576 9.80299C67.2605 9.48625 67.1477 9.13926 66.8783 8.9435L64.6353 7.31386C64.0328 6.87613 64.3424 5.92318 65.0871 5.92318L67.8597 5.92318C68.1927 5.92318 68.4879 5.70873 68.5908 5.39199L69.4475 2.75518Z" fill="#D9D9D9"/>
</mask>
<g mask="url(#mask0_1221_494)">
<rect x="63.8076" y="0.505005" width="6.37102" height="14.2123" fill="#FFBD37"/>
</g>
</svg>
