<svg width="32" height="32" viewBox="0 0 32 32" fill="none" xmlns="http://www.w3.org/2000/svg">
<path d="M0 8.42105C0 3.77023 3.77023 0 8.42105 0H23.5789C28.2298 0 32 3.77023 32 8.42105V23.5789C32 28.2298 28.2298 32 23.5789 32H8.42105C3.77023 32 0 28.2298 0 23.5789V8.42105Z" fill="#2174F5"/>
<g filter="url(#filter0_d_386_334)">
<path d="M8.42188 8.42151C8.42188 7.49136 9.17592 6.7373 10.1061 6.7373C11.0363 6.7373 11.7903 7.49136 11.7903 8.42151V23.5794C11.7903 24.5095 11.0363 25.2636 10.1061 25.2636C9.17592 25.2636 8.42188 24.5095 8.42188 23.5794V8.42151Z" fill="#F1F5F9"/>
</g>
<g opacity="0.9" filter="url(#filter1_d_386_334)">
<path d="M14.7363 15.1578C14.7363 14.2276 15.4904 13.4736 16.4205 13.4736C17.3507 13.4736 18.1047 14.2276 18.1047 15.1578V23.5788C18.1047 24.509 17.3507 25.2631 16.4205 25.2631C15.4904 25.2631 14.7363 24.509 14.7363 23.5788V15.1578Z" fill="#F1F5F9"/>
</g>
<g opacity="0.7" filter="url(#filter2_d_386_334)">
<path d="M21.0518 10.9469C21.0518 10.0167 21.8059 9.2627 22.7361 9.2627C23.6662 9.2627 24.4203 10.0167 24.4203 10.9469V23.5785C24.4203 24.5086 23.6662 25.2627 22.7361 25.2627C21.8059 25.2627 21.0518 24.5086 21.0518 23.5785V10.9469Z" fill="#F1F5F9"/>
</g>
<defs>
<filter id="filter0_d_386_334" x="7.42188" y="6.2373" width="5.36841" height="20.5264" filterUnits="userSpaceOnUse" color-interpolation-filters="sRGB">
<feFlood flood-opacity="0" result="BackgroundImageFix"/>
<feColorMatrix in="SourceAlpha" type="matrix" values="0 0 0 0 0 0 0 0 0 0 0 0 0 0 0 0 0 0 127 0" result="hardAlpha"/>
<feOffset dy="0.5"/>
<feGaussianBlur stdDeviation="0.5"/>
<feComposite in2="hardAlpha" operator="out"/>
<feColorMatrix type="matrix" values="0 0 0 0 0 0 0 0 0 0 0 0 0 0 0 0 0 0 0.12 0"/>
<feBlend mode="normal" in2="BackgroundImageFix" result="effect1_dropShadow_386_334"/>
<feBlend mode="normal" in="SourceGraphic" in2="effect1_dropShadow_386_334" result="shape"/>
</filter>
<filter id="filter1_d_386_334" x="13.7363" y="12.9736" width="5.36841" height="13.7896" filterUnits="userSpaceOnUse" color-interpolation-filters="sRGB">
<feFlood flood-opacity="0" result="BackgroundImageFix"/>
<feColorMatrix in="SourceAlpha" type="matrix" values="0 0 0 0 0 0 0 0 0 0 0 0 0 0 0 0 0 0 127 0" result="hardAlpha"/>
<feOffset dy="0.5"/>
<feGaussianBlur stdDeviation="0.5"/>
<feComposite in2="hardAlpha" operator="out"/>
<feColorMatrix type="matrix" values="0 0 0 0 0 0 0 0 0 0 0 0 0 0 0 0 0 0 0.12 0"/>
<feBlend mode="normal" in2="BackgroundImageFix" result="effect1_dropShadow_386_334"/>
<feBlend mode="normal" in="SourceGraphic" in2="effect1_dropShadow_386_334" result="shape"/>
</filter>
<filter id="filter2_d_386_334" x="20.0518" y="8.7627" width="5.36841" height="18" filterUnits="userSpaceOnUse" color-interpolation-filters="sRGB">
<feFlood flood-opacity="0" result="BackgroundImageFix"/>
<feColorMatrix in="SourceAlpha" type="matrix" values="0 0 0 0 0 0 0 0 0 0 0 0 0 0 0 0 0 0 127 0" result="hardAlpha"/>
<feOffset dy="0.5"/>
<feGaussianBlur stdDeviation="0.5"/>
<feComposite in2="hardAlpha" operator="out"/>
<feColorMatrix type="matrix" values="0 0 0 0 0 0 0 0 0 0 0 0 0 0 0 0 0 0 0.12 0"/>
<feBlend mode="normal" in2="BackgroundImageFix" result="effect1_dropShadow_386_334"/>
<feBlend mode="normal" in="SourceGraphic" in2="effect1_dropShadow_386_334" result="shape"/>
</filter>
</defs>
</svg>
