<svg width="78" height="16" viewBox="0 0 78 16" fill="none" xmlns="http://www.w3.org/2000/svg">
<path d="M6.76888 2.70525C6.999 1.99699 8.001 1.99699 8.23112 2.70525L9.01126 5.10626C9.11418 5.423 9.40934 5.63745 9.74238 5.63745H12.267C13.0117 5.63745 13.3213 6.59041 12.7188 7.02813L10.6764 8.51204C10.407 8.7078 10.2942 9.05478 10.3971 9.37153L11.1773 11.7725C11.4074 12.4808 10.5968 13.0698 9.99428 12.632L7.95186 11.1481C7.68242 10.9524 7.31758 10.9524 7.04814 11.1481L5.00572 12.632C4.40324 13.0698 3.59261 12.4808 3.82274 11.7725L4.60287 9.37153C4.70579 9.05478 4.59304 8.7078 4.32361 8.51204L2.28119 7.02813C1.67871 6.59041 1.98834 5.63745 2.73305 5.63745H5.25762C5.59066 5.63745 5.88582 5.423 5.98874 5.10626L6.76888 2.70525Z" fill="#FFBD37"/>
<path d="M22.2736 2.55087C22.5126 1.86153 23.4874 1.86153 23.7264 2.55087L24.6169 5.12044C24.7242 5.42992 25.0158 5.63745 25.3433 5.63745H28.1142C28.8709 5.63745 29.1724 6.6156 28.547 7.04157L26.3924 8.50913C26.1055 8.70459 25.9851 9.06816 26.0988 9.39623L26.9416 11.828C27.1841 12.5276 26.3945 13.1319 25.7825 12.7151L23.4328 11.1146C23.1717 10.9367 22.8283 10.9367 22.5672 11.1146L20.2175 12.7151C19.6055 13.1319 18.8159 12.5276 19.0584 11.828L19.9012 9.39623C20.0149 9.06816 19.8945 8.70459 19.6076 8.50913L17.453 7.04157C16.8276 6.6156 17.1291 5.63745 17.8858 5.63745H20.6567C20.9842 5.63745 21.2758 5.42992 21.3831 5.12044L22.2736 2.55087Z" fill="#FFBD37"/>
<path d="M38.2736 2.55087C38.5126 1.86153 39.4874 1.86153 39.7264 2.55087L40.6169 5.12044C40.7242 5.42992 41.0158 5.63745 41.3433 5.63745H44.1142C44.8709 5.63745 45.1724 6.6156 44.547 7.04157L42.3924 8.50913C42.1055 8.70459 41.9851 9.06816 42.0988 9.39623L42.9416 11.828C43.1841 12.5276 42.3945 13.1319 41.7825 12.7151L39.4328 11.1146C39.1717 10.9367 38.8283 10.9367 38.5672 11.1146L36.2175 12.7151C35.6055 13.1319 34.8159 12.5276 35.0584 11.828L35.9012 9.39623C36.0149 9.06816 35.8945 8.70459 35.6076 8.50913L33.453 7.04157C32.8276 6.6156 33.1291 5.63745 33.8858 5.63745H36.6567C36.9842 5.63745 37.2758 5.42992 37.3831 5.12044L38.2736 2.55087Z" fill="#FFBD37"/>
<path d="M53.7689 2.70525C53.999 1.99699 55.001 1.99699 55.2311 2.70525L56.0113 5.10626C56.1142 5.423 56.4093 5.63745 56.7424 5.63745H59.267C60.0117 5.63745 60.3213 6.59041 59.7188 7.02813L57.6764 8.51204C57.407 8.7078 57.2942 9.05478 57.3971 9.37153L58.1773 11.7725C58.4074 12.4808 57.5968 13.0698 56.9943 12.632L54.9519 11.1481C54.6824 10.9524 54.3176 10.9524 54.0481 11.1481L52.0057 12.632C51.4032 13.0698 50.5926 12.4808 50.8227 11.7725L51.6029 9.37153C51.7058 9.05478 51.593 8.7078 51.3236 8.51204L49.2812 7.02813C48.6787 6.59041 48.9883 5.63745 49.733 5.63745H52.2576C52.5907 5.63745 52.8858 5.423 52.9887 5.10626L53.7689 2.70525Z" fill="#FFBD37"/>
<path d="M69.7689 2.70525C69.999 1.99699 71.001 1.99699 71.2311 2.70525L72.0113 5.10626C72.1142 5.423 72.4093 5.63745 72.7424 5.63745H75.267C76.0117 5.63745 76.3213 6.59041 75.7188 7.02813L73.6764 8.51204C73.407 8.7078 73.2942 9.05478 73.3971 9.37153L74.1773 11.7725C74.4074 12.4808 73.5968 13.0698 72.9943 12.632L70.9519 11.1481C70.6824 10.9524 70.3176 10.9524 70.0481 11.1481L68.0057 12.632C67.4032 13.0698 66.5926 12.4808 66.8227 11.7725L67.6029 9.37153C67.7058 9.05478 67.593 8.7078 67.3236 8.51204L65.2812 7.02813C64.6787 6.59041 64.9883 5.63745 65.733 5.63745H68.2576C68.5907 5.63745 68.8858 5.423 68.9887 5.10626L69.7689 2.70525Z" fill="#FFBD37"/>
</svg>
