<svg width="34" height="34" viewBox="0 0 34 34" fill="none" xmlns="http://www.w3.org/2000/svg">
<path id="Vector" fill-rule="evenodd" clip-rule="evenodd" d="M29.0208 4.97908C22.382 -1.65969 11.6179 -1.65969 4.97908 4.97908C-1.65969 11.6179 -1.65969 22.3816 4.97908 29.0208C11.6179 35.6599 22.3816 35.6595 29.0208 29.0208C35.6595 22.3816 35.6599 11.6179 29.0208 4.97908ZM22.7027 16.1259C23.8531 16.1259 23.8531 17.8736 22.7027 17.8736H17.8739V22.7024C17.8739 23.8527 16.1263 23.8527 16.1263 22.7024V17.8736H11.2975C10.1472 17.8736 10.1472 16.1259 11.2975 16.1259H16.1263V11.2971C16.1263 10.1468 17.8739 10.1468 17.8739 11.2971V16.1259H22.7027Z" fill="#2174F5"/>
</svg>
