<svg width="84" height="84" viewBox="0 0 84 84" fill="none" xmlns="http://www.w3.org/2000/svg">
<circle cx="42" cy="42" r="42" fill="#E9F1FE"/>
<path d="M37 39H35C34.4477 39 34 39.4477 34 40V42C34 42.5523 34.4477 43 35 43H37C37.5523 43 38 42.5523 38 42V40C38 39.4477 37.5523 39 37 39Z" fill="#2174F5"/>
<path d="M49 39H43C42.4477 39 42 39.4477 42 40V42C42 42.5523 42.4477 43 43 43H49C49.5523 43 50 42.5523 50 42V40C50 39.4477 49.5523 39 49 39Z" fill="#2174F5"/>
<path d="M37 47H35C34.4477 47 34 47.4477 34 48V50C34 50.5523 34.4477 51 35 51H37C37.5523 51 38 50.5523 38 50V48C38 47.4477 37.5523 47 37 47Z" fill="#2174F5"/>
<path d="M49 47H43C42.4477 47 42 47.4477 42 48V50C42 50.5523 42.4477 51 43 51H49C49.5523 51 50 50.5523 50 50V48C50 47.4477 49.5523 47 49 47Z" fill="#2174F5"/>
<path d="M56 27H28C27.4696 27 26.9609 27.2107 26.5858 27.5858C26.2107 27.9609 26 28.4696 26 29V57C26 57.5304 26.2107 58.0391 26.5858 58.4142C26.9609 58.7893 27.4696 59 28 59H56C56.5304 59 57.0391 58.7893 57.4142 58.4142C57.7893 58.0391 58 57.5304 58 57V29C58 28.4696 57.7893 27.9609 57.4142 27.5858C57.0391 27.2107 56.5304 27 56 27ZM54 54C54 54.2652 53.8946 54.5196 53.7071 54.7071C53.5196 54.8946 53.2652 55 53 55H31C30.7348 55 30.4804 54.8946 30.2929 54.7071C30.1054 54.5196 30 54.2652 30 54V36C30 35.7348 30.1054 35.4804 30.2929 35.2929C30.4804 35.1054 30.7348 35 31 35H53C53.2652 35 53.5196 35.1054 53.7071 35.2929C53.8946 35.4804 54 35.7348 54 36V54Z" fill="#2174F5"/>
</svg>
