<svg width="84" height="84" viewBox="0 0 84 84" fill="none" xmlns="http://www.w3.org/2000/svg">
<circle cx="42" cy="42" r="42" fill="#FBF0F1"/>
<path fill-rule="evenodd" clip-rule="evenodd" d="M49.0712 47.3C49.56 47.7875 49.56 48.5875 49.0712 49.075C48.5837 49.5625 47.7913 49.5625 47.3025 49.075L42.0075 43.7751L36.675 49.1124C36.1825 49.5999 35.385 49.5999 34.8925 49.1124C34.4013 48.6124 34.4013 47.8125 34.8925 47.325L40.225 41.9875L34.93 36.7C34.4412 36.2125 34.4412 35.4125 34.93 34.925C35.4162 34.4375 36.2087 34.4375 36.6975 34.925L41.9925 40.2249L47.365 34.85C47.8575 34.3625 48.6537 34.3625 49.1462 34.85C49.6375 35.35 49.6375 36.1375 49.1462 36.6375L43.775 42.0125L49.0712 47.3ZM42 22C30.9538 22 22 30.95 22 42C22 53.05 30.9538 62 42 62C53.0462 62 62 53.05 62 42C62 30.95 53.0462 22 42 22Z" fill="#D34053"/>
</svg>
