<svg width="20" height="20" viewBox="0 0 20 20" fill="none" xmlns="http://www.w3.org/2000/svg">
<g id="Group 1907">
<path id="Vector" fill-rule="evenodd" clip-rule="evenodd" d="M13.6365 3.03023C11.7956 3.03023 10.3032 4.52261 10.3032 6.36355C10.3032 8.2045 11.7956 9.69688 13.6365 9.69688C15.4775 9.69688 16.9698 8.2045 16.9698 6.36355C16.9698 4.52261 15.4775 3.03023 13.6365 3.03023ZM12.1215 6.36355C12.1215 5.52676 12.7998 4.84841 13.6365 4.84841C14.4733 4.84841 15.1516 5.52676 15.1516 6.36355C15.1516 7.20036 14.4733 7.8787 13.6365 7.8787C12.7998 7.8787 12.1215 7.20036 12.1215 6.36355Z" fill="white"/>
<path id="Vector_2" fill-rule="evenodd" clip-rule="evenodd" d="M0 3.33333C0 1.49238 1.49238 0 3.33333 0H16.6667C18.5076 0 20 1.49238 20 3.33333V16.6667C20 18.5076 18.5076 20 16.6667 20H3.33333C1.49238 20 0 18.5076 0 16.6667V3.33333ZM3.33333 1.81818C2.49655 1.81818 1.81818 2.49655 1.81818 3.33333V13.5138L5.66004 8.81827C5.83382 8.60589 6.09422 8.48336 6.36864 8.48486C6.64304 8.48636 6.90209 8.61174 7.07351 8.82604L11.2875 14.0935L13.5996 11.7815C13.7767 11.6044 14.0189 11.5082 14.2691 11.5155C14.5195 11.5229 14.7556 11.6331 14.9218 11.8204L18.1818 15.4876V3.33333C18.1818 2.49655 17.5035 1.81818 16.6667 1.81818H3.33333ZM1.81818 16.6667V16.3851L6.35569 10.8393L10.5022 16.0224C10.6638 16.2244 10.9037 16.348 11.1619 16.3622C11.42 16.3765 11.6722 16.2802 11.8549 16.0975L14.2035 13.7487L17.744 17.732C17.4695 18.0096 17.0882 18.1818 16.6667 18.1818H3.33333C2.49655 18.1818 1.81818 17.5035 1.81818 16.6667Z" fill="white"/>
</g>
</svg>
