<svg width="25" height="25" viewBox="0 0 25 25" fill="none" xmlns="http://www.w3.org/2000/svg">
<g id="Group 1906">
<path id="Vector" d="M11.0645 8.35373H7.90701V7.27615C7.90701 7.01734 7.69526 6.80559 7.43646 6.80559C7.17765 6.80559 6.9659 7.01734 6.9659 7.27615V8.35373H3.80845C3.54964 8.35373 3.33789 8.56548 3.33789 8.82428C3.33789 9.08309 3.54964 9.29484 3.80845 9.29484H5.23895C5.46011 9.80305 5.96831 10.8571 6.7965 11.8641C6.16595 12.4805 5.39894 13.0028 4.48605 13.2005C4.23195 13.2569 4.07196 13.5063 4.12843 13.7604C4.17548 13.9816 4.37312 14.1322 4.58958 14.1322C4.62252 14.1322 4.65545 14.1275 4.68839 14.1228C5.79421 13.8828 6.70238 13.2758 7.43646 12.5652C8.17053 13.2758 9.07871 13.8828 10.1845 14.1228C10.2175 14.1322 10.2504 14.1322 10.2833 14.1322C10.4998 14.1322 10.6927 13.9816 10.7445 13.7604C10.801 13.5063 10.641 13.2569 10.3869 13.2005C9.47398 13.0028 8.70696 12.4852 8.07642 11.8641C8.9046 10.8571 9.41751 9.80305 9.63397 9.29484H11.0645C11.3233 9.29484 11.535 9.08309 11.535 8.82428C11.535 8.56548 11.3233 8.35373 11.0645 8.35373ZM7.43646 11.1488C6.90472 10.4759 6.51416 9.77952 6.27888 9.29484H8.59403C8.35875 9.77952 7.96819 10.4712 7.43646 11.1488Z" fill="white" stroke="white" stroke-width="0.5"/>
<path id="Vector_2" d="M21.5909 14.4474V14.4426L20.1463 10.9887C20.071 10.8146 19.9016 10.7017 19.7134 10.7017C19.5252 10.7017 19.3511 10.8146 19.2805 10.9887L17.8359 14.4426L17.1959 15.972C17.0971 16.2119 17.21 16.4896 17.45 16.5884C17.69 16.6872 17.9676 16.5743 18.0664 16.3343L18.584 15.0967H20.8427L21.3603 16.3343C21.4356 16.5131 21.6097 16.6213 21.7933 16.6213C21.8544 16.6213 21.9156 16.6072 21.9768 16.5837C22.2168 16.4849 22.3297 16.2072 22.2309 15.9673L21.5909 14.4474ZM18.9746 14.1556L19.7134 12.391L20.4522 14.1556H18.9746Z" fill="white" stroke="white" stroke-width="0.5"/>
<path id="Vector_3" d="M24.0001 21.4259V7.61028C24.0001 6.05273 22.7296 4.78222 21.1721 4.78222H12.4856L11.1915 1.04599C11.1256 0.857764 10.9468 0.730713 10.7492 0.730713H3.57317C2.01563 0.730713 0.745117 2.00122 0.745117 3.55877V17.3697C0.745117 18.9319 2.01563 20.2024 3.57317 20.2024H11.9491L13.2432 23.9387C13.2479 23.9481 13.2526 23.9575 13.2573 23.9669C13.2667 23.9857 13.2761 24.0045 13.2855 24.0187C13.3043 24.0516 13.3279 24.0845 13.3561 24.1081C13.3655 24.1175 13.3702 24.1269 13.3796 24.1363C13.3843 24.141 13.3937 24.141 13.3984 24.1457C13.4267 24.1692 13.4549 24.1834 13.4878 24.1975C13.502 24.2069 13.5161 24.2163 13.5349 24.221C13.5773 24.2351 13.6243 24.2445 13.6667 24.2445C13.6714 24.2445 13.6761 24.2492 13.6855 24.2492H21.1721C22.7343 24.2586 24.0001 22.9881 24.0001 21.4259ZM1.68623 17.3697V3.55877C1.68623 2.51884 2.53324 1.67183 3.57317 1.67183H10.4151L16.4994 19.266H3.57317C2.53324 19.266 1.68623 18.4143 1.68623 17.3697ZM16.1371 20.2071L13.8643 22.8611L12.9467 20.2071H16.1371ZM23.059 21.4259C23.059 22.4705 22.212 23.3175 21.1721 23.3175H14.7066L17.5158 20.0424C17.5205 20.0377 17.5205 20.033 17.5205 20.0283C17.5252 20.0189 17.5346 20.0142 17.5394 20.0095C17.5676 19.9719 17.5864 19.9342 17.6005 19.8919C17.6052 19.8824 17.6052 19.873 17.6099 19.8636C17.6241 19.8166 17.6288 19.7648 17.6288 19.713C17.6288 19.7083 17.6288 19.7036 17.6288 19.6989C17.6241 19.6613 17.6193 19.6236 17.6052 19.586L12.8102 5.72805H21.1721C22.212 5.72805 23.059 6.57505 23.059 7.61498V21.4259Z" fill="white" stroke="white" stroke-width="0.5"/>
</g>
</svg>
