<svg width="24" height="15" viewBox="0 0 24 15" fill="none" xmlns="http://www.w3.org/2000/svg">
<path id="Vector" d="M4.33213 15H13.5162C15.5668 15 17.2708 13.5271 17.7329 11.5431L21.4585 14.0381C21.7184 14.2184 22.0361 14.3086 22.3538 14.3086C22.6137 14.3086 22.9025 14.2485 23.1336 14.0982C23.6823 13.7976 24 13.1964 24 12.5651V2.43487C24 1.80361 23.6534 1.2024 23.1336 0.901804C22.6137 0.601202 21.9783 0.631263 21.4585 0.961924L17.7329 3.45691C17.2708 1.47295 15.5668 0 13.5162 0H4.33213C1.93502 0 0 2.01403 0 4.50902V10.491C0 12.986 1.93502 15 4.33213 15ZM22.2383 2.58517V12.4449L17.8195 9.499V5.53106L22.2383 2.58517ZM1.73285 4.53908C1.73285 3.03607 2.88809 1.83367 4.33213 1.83367H13.5162C14.9603 1.83367 16.1155 3.03607 16.1155 4.53908V10.521C16.1155 12.024 14.9603 13.2265 13.5162 13.2265H4.33213C2.88809 13.2265 1.73285 12.024 1.73285 10.521V4.53908Z" fill="white"/>
</svg>
