<svg width="21" height="21" viewBox="0 0 21 21" fill="none" xmlns="http://www.w3.org/2000/svg">
<g id="Group 1872">
<path id="Vector" d="M18.9 1.52783H14.9978C13.7077 0.537078 12.1266 0 10.5 0C8.87337 0 7.29225 0.537078 6.00218 1.52783H2.1C1.54305 1.52783 1.0089 1.74907 0.615076 2.14289C0.221249 2.5367 0 3.07083 0 3.62777V15.082C0 15.6389 0.221249 16.1731 0.615076 16.5669C1.0089 16.9607 1.54305 17.1819 2.1 17.1819H7.51418L6.97964 19.8546H5.91818C5.76628 19.8546 5.62061 19.9149 5.5132 20.0223C5.4058 20.1297 5.34545 20.2754 5.34545 20.4273C5.34545 20.5792 5.4058 20.7249 5.5132 20.8323C5.62061 20.9397 5.76628 21 5.91818 21H15.0818C15.2337 21 15.3794 20.9397 15.4868 20.8323C15.5942 20.7249 15.6545 20.5792 15.6545 20.4273C15.6545 20.2754 15.5942 20.1297 15.4868 20.0223C15.3794 19.9149 15.2337 19.8546 15.0818 19.8546H14.0204L13.4858 17.1819H18.9C19.457 17.1819 19.9911 16.9607 20.3849 16.5669C20.7787 16.1731 21 15.6389 21 15.082V3.62777C21 3.07083 20.7787 2.5367 20.3849 2.14289C19.9911 1.74907 19.457 1.52783 18.9 1.52783ZM19.8545 3.62777V12.982H15.4636C16.9078 11.7012 17.7955 9.90767 17.9381 7.98265C18.0807 6.05764 17.4669 4.1529 16.2273 2.67325H18.9C19.1532 2.67325 19.396 2.77382 19.575 2.95282C19.754 3.13183 19.8545 3.37462 19.8545 3.62777ZM16.8 7.44584C16.8 8.69183 16.4305 9.90983 15.7383 10.9458C15.046 11.9818 14.0621 12.7893 12.9109 13.2661C11.7597 13.7429 10.493 13.8677 9.27093 13.6246C8.04885 13.3815 6.9263 12.7815 6.04523 11.9005C5.16416 11.0194 4.56414 9.89692 4.32105 8.67488C4.07797 7.45283 4.20273 6.18615 4.67956 5.03501C5.15639 3.88387 5.96388 2.89997 6.99991 2.20773C8.03594 1.5155 9.25398 1.14602 10.5 1.14602C12.1702 1.14804 13.7715 1.81242 14.9525 2.99343C16.1336 4.17444 16.798 5.77565 16.8 7.44584ZM2.1 2.67325H4.79564C3.55598 4.1529 2.94224 6.05764 3.08483 7.98265C3.22743 9.90767 4.11513 11.7012 5.55927 12.982H1.14545V3.62777C1.14545 3.37462 1.24602 3.13183 1.42503 2.95282C1.60405 2.77382 1.84684 2.67325 2.1 2.67325ZM12.852 19.8546H8.148L8.67491 17.1819H12.3251L12.852 19.8546ZM19.8545 15.082C19.8545 15.3351 19.754 15.5779 19.575 15.7569C19.396 15.9359 19.1532 16.0365 18.9 16.0365H2.1C1.84684 16.0365 1.60405 15.9359 1.42503 15.7569C1.24602 15.5779 1.14545 15.3351 1.14545 15.082V14.1275H7.25455C8.26819 14.6295 9.38409 14.8908 10.5153 14.8908C11.6465 14.8908 12.7624 14.6295 13.776 14.1275H19.8851L19.8545 15.082Z" fill="white"/>
<path id="Vector_2" d="M9.73625 8.01861H11.2635C11.4154 8.01861 11.5611 8.07894 11.6685 8.18635C11.7759 8.29375 11.8362 8.43942 11.8362 8.59132C11.8362 8.74321 11.7759 8.88888 11.6685 8.99628C11.5611 9.10369 11.4154 9.16403 11.2635 9.16403H8.97261C8.82072 9.16403 8.67504 9.22437 8.56763 9.33177C8.46023 9.43917 8.39988 9.58485 8.39988 9.73674C8.39988 9.88863 8.46023 10.0343 8.56763 10.1417C8.67504 10.2491 8.82072 10.3094 8.97261 10.3094H9.92716V10.5004C9.92716 10.6522 9.9875 10.7979 10.0949 10.9053C10.2023 11.0127 10.348 11.0731 10.4999 11.0731C10.6518 11.0731 10.7975 11.0127 10.9049 10.9053C11.0123 10.7979 11.0726 10.6522 11.0726 10.5004V10.3094H11.2635C11.7192 10.3094 12.1562 10.1284 12.4785 9.80622C12.8007 9.48401 12.9817 9.04699 12.9817 8.59132C12.9817 8.13564 12.8007 7.69863 12.4785 7.37641C12.1562 7.0542 11.7192 6.87318 11.2635 6.87318H9.73625C9.58435 6.87318 9.43868 6.81284 9.33127 6.70544C9.22386 6.59804 9.16352 6.45236 9.16352 6.30047C9.16352 6.14858 9.22386 6.00291 9.33127 5.89551C9.43868 5.7881 9.58435 5.72776 9.73625 5.72776H12.0272C12.1791 5.72776 12.3247 5.66742 12.4321 5.56002C12.5395 5.45261 12.5999 5.30694 12.5999 5.15505C12.5999 5.00316 12.5395 4.85749 12.4321 4.75008C12.3247 4.64268 12.1791 4.58234 12.0272 4.58234H11.0726V4.39144C11.0726 4.23954 11.0123 4.09387 10.9049 3.98647C10.7975 3.87906 10.6518 3.81873 10.4999 3.81873C10.348 3.81873 10.2023 3.87906 10.0949 3.98647C9.9875 4.09387 9.92716 4.23954 9.92716 4.39144V4.58234H9.73625C9.28056 4.58234 8.84353 4.76336 8.52131 5.08557C8.19909 5.40778 8.01807 5.8448 8.01807 6.30047C8.01807 6.75615 8.19909 7.19316 8.52131 7.51538C8.84353 7.83759 9.28056 8.01861 9.73625 8.01861Z" fill="white"/>
</g>
</svg>
