<svg width="156" height="22" viewBox="0 0 156 22" fill="none" xmlns="http://www.w3.org/2000/svg">
<path d="M11.5 0L15.0535 7.2408L23 8.40904L17.25 14.0421L18.607 22L11.5 18.2408L4.393 22L5.75 14.0421L0 8.40904L7.9465 7.2408L11.5 0Z" fill="#FFA000"/>
<path d="M44.5 0L48.0535 7.2408L56 8.40904L50.25 14.0421L51.607 22L44.5 18.2408L37.393 22L38.75 14.0421L33 8.40904L40.9465 7.2408L44.5 0Z" fill="#FFA000"/>
<path d="M77.5 0L81.0535 7.2408L89 8.40904L83.25 14.0421L84.607 22L77.5 18.2408L70.393 22L71.75 14.0421L66 8.40904L73.9465 7.2408L77.5 0Z" fill="#FFA000"/>
<path d="M110.5 0L114.054 7.2408L122 8.40904L116.25 14.0421L117.607 22L110.5 18.2408L103.393 22L104.75 14.0421L99 8.40904L106.946 7.2408L110.5 0Z" fill="#FFA000"/>
<path d="M144.5 0L148.054 7.2408L156 8.40904L150.25 14.0421L151.607 22L144.5 18.2408L137.393 22L138.75 14.0421L133 8.40904L140.946 7.2408L144.5 0Z" fill="#DDDDDD"/>
</svg>
