<svg width="84" height="84" viewBox="0 0 84 84" fill="none" xmlns="http://www.w3.org/2000/svg">
<circle cx="42" cy="42" r="42" fill="#EDF7F1"/>
<path fill-rule="evenodd" clip-rule="evenodd" d="M36.8924 24.6285C39.3956 21.1238 44.6043 21.1238 47.1076 24.6285L47.5062 25.1864C47.9466 25.8032 48.6865 26.1335 49.4397 26.0498L51.216 25.8524C55.2139 25.4082 58.5918 28.7862 58.1476 32.7839L57.9503 34.5603C57.8666 35.3136 58.1968 36.0533 58.8136 36.4939L59.3716 36.8924C62.8761 39.3956 62.8761 44.6043 59.3716 47.1076L58.8136 47.5062C58.1968 47.9466 57.8666 48.6865 57.9503 49.4397L58.1476 51.216C58.5918 55.2139 55.2139 58.5918 51.216 58.1476L49.4397 57.9503C48.6865 57.8666 47.9466 58.1968 47.5062 58.8136L47.1076 59.3716C44.6043 62.8761 39.3958 62.8761 36.8924 59.3716L36.4939 58.8136C36.0533 58.1968 35.3136 57.8666 34.5603 57.9503L32.7839 58.1476C28.7862 58.5918 25.4082 55.2139 25.8524 51.216L26.0498 49.4397C26.1335 48.6865 25.8032 47.9466 25.1864 47.5062L24.6285 47.1076C21.1238 44.6043 21.1238 39.3958 24.6285 36.8924L25.1864 36.4939C25.8032 36.0533 26.1335 35.3136 26.0498 34.5603L25.8524 32.7839C25.4082 28.7862 28.7862 25.4082 32.7839 25.8524L34.5603 26.0498C35.3136 26.1335 36.0533 25.8032 36.4939 25.1864L36.8924 24.6285ZM49.7562 36.3361C50.5733 37.1532 50.5733 38.4779 49.7562 39.295L41.7661 47.2851C40.7399 48.3115 39.0757 48.3115 38.0494 47.2851L34.2438 43.4795C33.4267 42.6624 33.4267 41.3376 34.2438 40.5206C35.0609 39.7036 36.3856 39.7036 37.2027 40.5206L39.9078 43.2257L46.7974 36.3361C47.6144 35.519 48.9392 35.519 49.7562 36.3361Z" fill="#219653"/>
</svg>
