<svg width="28" height="22" viewBox="0 0 28 22" fill="none" xmlns="http://www.w3.org/2000/svg">
<g id="Group 1877">
<path id="Vector" d="M12.681 13.6347L9.26527 11.185C9.14902 11.0905 9.00812 11.0314 8.85928 11.0146C8.71044 10.9978 8.5599 11.0241 8.42554 11.0903C8.29104 11.1617 8.17975 11.2701 8.1048 11.4026C8.02986 11.5352 7.99436 11.6864 8.00251 11.8385V16.8895C7.99162 17.0421 8.02481 17.1947 8.09812 17.329C8.17144 17.4633 8.2818 17.5737 8.41607 17.6471C8.51977 17.6996 8.63447 17.7267 8.7507 17.7261C8.93781 17.7211 9.11831 17.6557 9.26527 17.5398L12.681 15.0901C12.8008 15.0102 12.8991 14.902 12.967 14.7751C13.035 14.6481 13.0705 14.5064 13.0705 14.3624C13.0705 14.2184 13.035 14.0767 12.967 13.9497C12.8991 13.8228 12.8008 13.7146 12.681 13.6347ZM9.20529 16.0971V12.6245L11.6361 14.364L9.20529 16.0971Z" fill="white"/>
<path id="Vector_2" d="M27.6038 5.25963L23.2599 3.72222L23.4209 2.05223C23.4297 1.89566 23.3767 1.7419 23.2735 1.62389C23.1702 1.50587 23.0248 1.43299 22.8685 1.42085L11.3174 0.517983C11.1593 0.509348 11.0042 0.563578 10.886 0.668844C10.7677 0.774111 10.6958 0.921874 10.6861 1.07991L10.2757 7.62729H1.93201C1.41987 7.62813 0.928938 7.83195 0.566796 8.19409C0.204654 8.55623 0.000834795 9.04716 0 9.55931V19.3457C0.000834795 19.8578 0.204654 20.3487 0.566796 20.7109C0.928938 21.073 1.41987 21.2768 1.93201 21.2777H18.815C19.3272 21.2768 19.8181 21.073 20.1803 20.7109C20.5424 20.3487 20.7462 19.8578 20.7471 19.3457V18.8721L22.5623 19.5035C22.7121 19.556 22.8767 19.547 23.02 19.4783C23.1632 19.4097 23.2733 19.287 23.3262 19.1373L27.9669 6.02044C28.0186 5.87136 28.0095 5.70791 27.9415 5.5655C27.8736 5.42309 27.7522 5.31319 27.6038 5.25963ZM11.8194 1.7618L22.1677 2.55733L22.0224 4.04423C22.0224 4.04423 22.0224 4.04423 22.0224 4.06317L20.9459 15.1849H20.7502V9.56246C20.7494 9.05032 20.5456 8.55939 20.1834 8.19724C19.8213 7.8351 19.3303 7.63128 18.8182 7.63045H11.4753L11.8194 1.7618ZM19.5506 19.3393C19.5498 19.5333 19.4723 19.7191 19.3352 19.8563C19.198 19.9935 19.0122 20.0709 18.8182 20.0717H1.93201C1.73803 20.0709 1.55222 19.9935 1.41505 19.8563C1.27788 19.7191 1.20045 19.5333 1.19962 19.3393V9.55299C1.20045 9.359 1.27788 9.1732 1.41505 9.03603C1.55222 8.89886 1.73803 8.82143 1.93201 8.82059H18.815C19.009 8.82143 19.1948 8.89886 19.332 9.03603C19.4692 9.1732 19.5466 9.359 19.5474 9.55299L19.5506 19.3393ZM22.3918 18.1744L20.7439 17.5904V16.3845H21.4858C21.6349 16.3844 21.7787 16.3287 21.889 16.2283C21.9993 16.1279 22.0683 15.99 22.0824 15.8415L23.1558 4.95341L26.6283 6.19091L22.3918 18.1744Z" fill="white"/>
</g>
</svg>
