<svg width="22" height="22" viewBox="0 0 22 22" fill="none" xmlns="http://www.w3.org/2000/svg">
<path fill-rule="evenodd" clip-rule="evenodd" d="M10.7859 13.858C9.24725 13.858 8 12.5788 8 11.0007C8 9.42255 9.24725 8.14331 10.7859 8.14331C12.3245 8.14331 13.5718 9.42255 13.5718 11.0007C13.5718 11.7584 13.2783 12.4852 12.7559 13.0211C12.2335 13.557 11.5248 13.858 10.7859 13.858Z" stroke="#1C2434" stroke-width="1.5" stroke-linecap="round" stroke-linejoin="round"/>
<path fill-rule="evenodd" clip-rule="evenodd" d="M18.1571 16.8054V14.8882C18.1571 14.4134 18.341 13.9581 18.6683 13.6224L19.9902 12.2665C20.6719 11.5675 20.6719 10.434 19.9902 9.73493L18.6683 8.37911C18.341 8.04339 18.1571 7.58807 18.1571 7.11329V5.19458C18.1571 4.20592 17.3756 3.40445 16.4117 3.40445H14.541C14.0781 3.40445 13.6341 3.21583 13.3068 2.88012L11.9848 1.52431C11.3032 0.82523 10.1981 0.82523 9.51648 1.52431L8.19462 2.88012C7.8673 3.21583 7.42335 3.40445 6.96046 3.40445H5.08971C4.62656 3.40445 4.18242 3.59325 3.85505 3.92927C3.52768 4.2653 3.34397 4.72099 3.34434 5.19601V7.11329C3.34433 7.58807 3.16044 8.04339 2.83312 8.37911L1.51121 9.73493C0.829598 10.434 0.829598 11.5675 1.51121 12.2665L2.83312 13.6224C3.16044 13.9581 3.34433 14.4134 3.34434 14.8882V16.8054C3.34434 17.7941 4.12577 18.5956 5.08971 18.5956H6.96046C7.42335 18.5956 7.8673 18.7842 8.19462 19.1199L9.51648 20.4757C10.1981 21.1748 11.3032 21.1748 11.9848 20.4757L13.3068 19.1199C13.6341 18.7842 14.0781 18.5956 14.541 18.5956H16.4103C16.8734 18.596 17.3178 18.4076 17.6454 18.0717C17.973 17.7359 18.1571 17.2805 18.1571 16.8054Z" stroke="#2174F5" stroke-width="1.5" stroke-linecap="round" stroke-linejoin="round"/>
</svg>
