<svg width="22" height="22" viewBox="0 0 22 22" fill="none" xmlns="http://www.w3.org/2000/svg">
<path d="M16.2993 1.41797C16.4762 2.48599 16.9855 3.47099 17.7548 4.23272C18.5443 5.02922 19.5723 5.54615 20.6825 5.70493" stroke="#1C2434"/>
<path d="M14.1116 10.4813C15.5438 10.4813 16.7047 9.32037 16.7047 7.88825C16.7047 6.45613 15.5438 5.29517 14.1116 5.29517C12.6795 5.29517 11.5186 6.45613 11.5186 7.88825C11.5186 9.32037 12.6795 10.4813 14.1116 10.4813Z" stroke="#2174F5" stroke-width="1.5"/>
<path d="M3.83574 13.4341L1.61907 13.7185C1.59962 13.7207 1.57995 13.7177 1.56197 13.71C1.544 13.7023 1.52834 13.69 1.51653 13.6744C1.50472 13.6588 1.49717 13.6404 1.49462 13.621C1.49206 13.6016 1.4946 13.5819 1.50196 13.5638L3.14564 9.7996C3.21636 9.63808 3.32459 9.49577 3.46134 9.38448C3.59809 9.27318 3.75942 9.19612 3.93193 9.15969L6.68813 8.58252" stroke="#1C2434"/>
<path d="M8.71213 18.2772L8.42354 20.4939C8.42138 20.5133 8.42431 20.533 8.43203 20.551C8.43976 20.5689 8.45203 20.5846 8.46763 20.5964C8.48324 20.6082 8.50164 20.6158 8.52104 20.6183C8.54044 20.6209 8.56017 20.6183 8.57829 20.611L12.3424 18.9715C12.5037 18.8992 12.6456 18.79 12.7568 18.6527C12.868 18.5153 12.9453 18.3538 12.9824 18.181L13.5595 15.4248" stroke="#1C2434"/>
<path d="M6.89721 17.746C5.90599 20.8452 1.00003 20.9999 1.00003 20.9999C1.00003 20.9999 0.954029 16.232 4.19957 15.0442" stroke="#2174F5"/>
<path d="M3.46338 14.2914L7.89254 18.7415C7.89254 18.7415 21.6944 12.8862 20.9542 1.05415C20.9542 1.05415 10.0046 -0.593716 3.46338 14.2914Z" stroke="#1C2434"/>
</svg>
