<svg width="41" height="41" viewBox="0 0 41 41" fill="none" xmlns="http://www.w3.org/2000/svg">
<g id="Group 183">
<circle id="Ellipse 33" cx="20.5" cy="20.5" r="20.5" fill="#5290F5"/>
<path id="Vector" d="M28.3784 10H20.4705C20.1101 10 19.8298 10.3148 19.8298 10.7195V12.6306H15.5656C15.2052 12.6306 14.9249 12.9454 14.9249 13.3501V15.2612H10.6406C10.2803 15.2612 10 15.576 10 15.9807V25.0193C10 25.424 10.2803 25.7388 10.6406 25.7388H14.9049V27.6499C14.9049 28.0546 15.1852 28.3694 15.5455 28.3694H19.8098V30.2805C19.8098 30.6852 20.0901 31 20.4504 31H28.3583C28.7187 31 28.999 30.6852 28.999 30.2805V10.7195C29.019 10.3148 28.7387 10 28.3784 10ZM11.3013 24.3223V16.7227H14.9049V24.3223H11.3013ZM16.2062 26.9529V14.0921H19.8298V26.9529H16.2062ZM27.7177 29.606H21.1111V11.439H27.7177V29.606Z" fill="white"/>
</g>
</svg>
